<?xml version="1.0" encoding="UTF-8" standalone="no"?>
<!DOCTYPE svg PUBLIC "-//W3C//DTD SVG 1.1//EN"
 "http://www.w3.org/Graphics/SVG/1.1/DTD/svg11.dtd">
<!-- Generated by graphviz version 2.40.1 (20161225.0304)
 -->
<!-- Title: G Pages: 1 -->
<svg width="411pt" height="404pt"
 viewBox="0.00 0.00 411.27 404.00" xmlns="http://www.w3.org/2000/svg" xmlns:xlink="http://www.w3.org/1999/xlink">
<g id="graph0" class="graph" transform="scale(1 1) rotate(0) translate(4 400)">
<title>G</title>
<polygon fill="#ffffff" stroke="transparent" points="-4,4 -4,-400 407.2734,-400 407.2734,4 -4,4"/>
<!-- x86_decode_insn -->
<g id="node1" class="node">
<title>x86_decode_insn</title>
<polygon fill="#b7c9e2" stroke="#000000" points="235.7347,-396 108.7347,-396 108.7347,-360 235.7347,-360 235.7347,-396"/>
<text text-anchor="middle" x="172.2347" y="-374.3" font-family="Fira Sans" font-size="14.00" fill="#000000">x86_decode_insn</text>
</g>
<!-- __do_insn_fetch_bytes -->
<g id="node2" class="node">
<title>__do_insn_fetch_bytes</title>
<ellipse fill="none" stroke="#000000" cx="172.2347" cy="-306" rx="106.6812" ry="18"/>
<text text-anchor="middle" x="172.2347" y="-302.3" font-family="Fira Sans" font-size="14.00" fill="#000000">__do_insn_fetch_bytes</text>
</g>
<!-- x86_decode_insn&#45;&gt;__do_insn_fetch_bytes -->
<g id="edge1" class="edge">
<title>x86_decode_insn&#45;&gt;__do_insn_fetch_bytes</title>
<path fill="none" stroke="#000000" d="M172.2347,-359.8314C172.2347,-352.131 172.2347,-342.9743 172.2347,-334.4166"/>
<polygon fill="#000000" stroke="#000000" points="175.7348,-334.4132 172.2347,-324.4133 168.7348,-334.4133 175.7348,-334.4132"/>
</g>
<!-- (ctx&#45;&gt;ops&#45;&gt;fetch) kvm_fetch_guest_virt -->
<g id="node3" class="node">
<title>(ctx&#45;&gt;ops&#45;&gt;fetch) kvm_fetch_guest_virt</title>
<ellipse fill="none" stroke="#000000" cx="172.2347" cy="-234" rx="172.4698" ry="18"/>
<text text-anchor="middle" x="172.2347" y="-230.3" font-family="Fira Sans" font-size="14.00" fill="#000000">(ctx&#45;&gt;ops&#45;&gt;fetch) kvm_fetch_guest_virt</text>
</g>
<!-- __do_insn_fetch_bytes&#45;&gt;(ctx&#45;&gt;ops&#45;&gt;fetch) kvm_fetch_guest_virt -->
<g id="edge2" class="edge">
<title>__do_insn_fetch_bytes&#45;&gt;(ctx&#45;&gt;ops&#45;&gt;fetch) kvm_fetch_guest_virt</title>
<path fill="none" stroke="#000000" d="M172.2347,-287.8314C172.2347,-280.131 172.2347,-270.9743 172.2347,-262.4166"/>
<polygon fill="#000000" stroke="#000000" points="175.7348,-262.4132 172.2347,-252.4133 168.7348,-262.4133 175.7348,-262.4132"/>
</g>
<!-- gva_to_gpa -->
<g id="node4" class="node">
<title>gva_to_gpa</title>
<ellipse fill="none" stroke="#000000" cx="70.2347" cy="-162" rx="58.4896" ry="18"/>
<text text-anchor="middle" x="70.2347" y="-158.3" font-family="Fira Sans" font-size="14.00" fill="#000000">gva_to_gpa</text>
</g>
<!-- (ctx&#45;&gt;ops&#45;&gt;fetch) kvm_fetch_guest_virt&#45;&gt;gva_to_gpa -->
<g id="edge3" class="edge">
<title>(ctx&#45;&gt;ops&#45;&gt;fetch) kvm_fetch_guest_virt&#45;&gt;gva_to_gpa</title>
<path fill="none" stroke="#000000" d="M146.7589,-216.0171C133.1449,-206.4072 116.2613,-194.4894 101.8194,-184.2951"/>
<polygon fill="#000000" stroke="#000000" points="103.8297,-181.43 93.6416,-178.5225 99.7929,-187.1488 103.8297,-181.43"/>
</g>
<!-- kvm_vcpu_read_guest_page -->
<g id="node5" class="node">
<title>kvm_vcpu_read_guest_page</title>
<ellipse fill="none" stroke="#000000" cx="275.2347" cy="-162" rx="128.0773" ry="18"/>
<text text-anchor="middle" x="275.2347" y="-158.3" font-family="Fira Sans" font-size="14.00" fill="#000000">kvm_vcpu_read_guest_page</text>
</g>
<!-- (ctx&#45;&gt;ops&#45;&gt;fetch) kvm_fetch_guest_virt&#45;&gt;kvm_vcpu_read_guest_page -->
<g id="edge4" class="edge">
<title>(ctx&#45;&gt;ops&#45;&gt;fetch) kvm_fetch_guest_virt&#45;&gt;kvm_vcpu_read_guest_page</title>
<path fill="none" stroke="#000000" d="M197.9603,-216.0171C211.0859,-206.8419 227.221,-195.563 241.3465,-185.6888"/>
<polygon fill="#000000" stroke="#000000" points="243.6462,-188.3517 249.837,-179.7537 239.6357,-182.6144 243.6462,-188.3517"/>
</g>
<!-- __kvm_read_guest_page -->
<g id="node6" class="node">
<title>__kvm_read_guest_page</title>
<ellipse fill="none" stroke="#000000" cx="275.2347" cy="-90" rx="113.9803" ry="18"/>
<text text-anchor="middle" x="275.2347" y="-86.3" font-family="Fira Sans" font-size="14.00" fill="#000000">__kvm_read_guest_page</text>
</g>
<!-- kvm_vcpu_read_guest_page&#45;&gt;__kvm_read_guest_page -->
<g id="edge5" class="edge">
<title>kvm_vcpu_read_guest_page&#45;&gt;__kvm_read_guest_page</title>
<path fill="none" stroke="#000000" d="M275.2347,-143.8314C275.2347,-136.131 275.2347,-126.9743 275.2347,-118.4166"/>
<polygon fill="#000000" stroke="#000000" points="278.7348,-118.4132 275.2347,-108.4133 271.7348,-118.4133 278.7348,-118.4132"/>
</g>
<!-- __copy_from_user -->
<g id="node7" class="node">
<title>__copy_from_user</title>
<ellipse fill="none" stroke="#000000" cx="275.2347" cy="-18" rx="87.1846" ry="18"/>
<text text-anchor="middle" x="275.2347" y="-14.3" font-family="Fira Sans" font-size="14.00" fill="#000000">__copy_from_user</text>
</g>
<!-- __kvm_read_guest_page&#45;&gt;__copy_from_user -->
<g id="edge6" class="edge">
<title>__kvm_read_guest_page&#45;&gt;__copy_from_user</title>
<path fill="none" stroke="#000000" d="M275.2347,-71.8314C275.2347,-64.131 275.2347,-54.9743 275.2347,-46.4166"/>
<polygon fill="#000000" stroke="#000000" points="278.7348,-46.4132 275.2347,-36.4133 271.7348,-46.4133 278.7348,-46.4132"/>
</g>
</g>
</svg>
